<svg width="216" height="52" viewBox="0 0 216 52" fill="none" xmlns="http://www.w3.org/2000/svg">
<path d="M32.6002 24.9758C32.5353 19.3887 37.469 16.6662 37.7071 16.5443C34.9156 12.7247 30.5877 12.1965 29.073 12.1559C25.4376 11.7902 21.9103 14.1876 20.071 14.1876C18.1884 14.1876 15.332 12.1762 12.2592 12.2371C8.29921 12.2981 4.59888 14.4517 2.58642 17.7836C-1.58997 24.5898 1.5261 34.5857 5.52937 40.0915C7.54183 42.7936 9.87888 45.8005 12.9517 45.6786C15.9595 45.5567 17.0848 43.8908 20.6985 43.8908C24.2907 43.8908 25.3294 45.6786 28.4671 45.6177C31.6913 45.5771 33.7254 42.9156 35.6513 40.1931C37.9667 37.1049 38.8972 34.0574 38.9405 33.9152C38.8323 33.8949 32.6651 31.6803 32.6002 24.9758Z" fill="white"/>
<path d="M26.6926 8.53935C28.3156 6.64987 29.4192 4.06962 29.0946 1.44873C26.7576 1.55032 23.8363 2.9725 22.1484 4.82135C20.6553 6.4467 19.3353 9.12854 19.6815 11.6478C22.2999 11.8307 25.0048 10.4085 26.6926 8.53935Z" fill="white"/>
<path d="M70.5332 38.8721H60.2979L57.831 45.6986H53.5032L63.1975 20.4651H67.6985L77.3928 45.6986H72.9784L70.5332 38.8721ZM61.3582 35.723H69.4729L65.4696 24.6503H65.3614L61.3582 35.723Z" fill="white"/>
<path d="M98.3608 36.4958C98.3608 42.2048 95.0934 45.8821 90.1813 45.8821C87.3899 45.8821 85.1827 44.7038 84.0142 42.6721H83.9277V51.774H79.9028V27.2922H83.7978V30.3601H83.8628C84.988 28.3893 87.3683 27.1094 90.0948 27.1094C95.0934 27.1094 98.3608 30.7867 98.3608 36.4958ZM94.2278 36.4958C94.2278 32.7778 92.1721 30.3194 89.0561 30.3194C85.9834 30.3194 83.906 32.8184 83.906 36.4958C83.906 40.1934 85.9834 42.6924 89.0561 42.6924C92.1721 42.6924 94.2278 40.2544 94.2278 36.4958Z" fill="white"/>
<path d="M119.914 36.4958C119.914 42.2048 116.647 45.8821 111.735 45.8821C108.943 45.8821 106.736 44.7038 105.568 42.6721H105.481V51.774H101.478V27.2922H105.373V30.3601H105.438C106.563 28.3893 108.943 27.1094 111.67 27.1094C116.647 27.1094 119.914 30.7867 119.914 36.4958ZM115.781 36.4958C115.781 32.7778 113.726 30.3194 110.61 30.3194C107.537 30.3194 105.459 32.8184 105.459 36.4958C105.459 40.1934 107.537 42.6924 110.61 42.6924C113.747 42.6924 115.781 40.2544 115.781 36.4958Z" fill="white"/>
<path d="M134.175 38.6691C134.478 41.1681 137.053 42.8138 140.602 42.8138C143.999 42.8138 146.422 41.1681 146.422 38.9129C146.422 36.9625 144.951 35.7841 141.467 34.9715L137.983 34.1791C133.049 33.0617 130.756 30.8878 130.756 27.373C130.756 23.0251 134.802 20.0386 140.537 20.0386C146.206 20.0386 150.101 23.0251 150.231 27.373H146.163C145.925 24.8537 143.696 23.3299 140.472 23.3299C137.247 23.3299 135.019 24.874 135.019 27.1088C135.019 28.8967 136.425 29.9329 139.887 30.7456L142.852 31.4363C148.37 32.6553 150.664 34.748 150.664 38.4253C150.664 43.1388 146.661 46.1051 140.299 46.1051C134.348 46.1051 130.323 43.2201 130.063 38.6488H134.175V38.6691Z" fill="white"/>
<path d="M159.361 22.9436V27.2914H163.083V30.278H159.361V40.4161C159.361 42.0008 160.097 42.7322 161.742 42.7322C162.153 42.7322 162.802 42.6712 163.062 42.6509V45.6172C162.607 45.7188 161.72 45.8 160.833 45.8C156.873 45.8 155.315 44.3982 155.315 40.8427V30.2983H152.458V27.3117H155.315V22.9436H159.361Z" fill="white"/>
<path d="M165.226 36.4948C165.226 30.7046 168.861 27.0679 174.509 27.0679C180.179 27.0679 183.792 30.7046 183.792 36.4948C183.792 42.3054 180.2 45.9218 174.509 45.9218C168.84 45.9218 165.226 42.3054 165.226 36.4948ZM179.724 36.4948C179.724 32.5331 177.777 30.1763 174.531 30.1763C171.285 30.1763 169.337 32.5331 169.337 36.4948C169.337 40.4769 171.263 42.8134 174.531 42.8134C177.798 42.8134 179.724 40.4769 179.724 36.4948Z" fill="white"/>
<path d="M187.146 27.2918H190.977V30.4206H191.063C191.669 28.3483 193.465 27.0886 195.781 27.0886C196.365 27.0886 196.841 27.1699 197.166 27.2308V30.766C196.841 30.6441 196.148 30.5425 195.369 30.5425C192.773 30.5425 191.171 32.1881 191.171 34.7684V45.6784H187.146V27.2918Z" fill="white"/>
<path d="M215.688 40.2941C215.147 43.626 211.685 45.9218 207.249 45.9218C201.558 45.9218 198.009 42.3461 198.009 36.5761C198.009 30.8062 201.558 27.0679 207.076 27.0679C212.486 27.0679 215.905 30.5624 215.905 36.1495V37.4497H202.077V37.6732C202.077 40.8223 204.176 42.8743 207.357 42.8743C209.586 42.8743 211.339 41.8788 211.88 40.2941H215.688ZM202.099 34.7882H211.902C211.815 31.9642 209.889 30.1154 207.098 30.1154C204.328 30.1357 202.315 32.0252 202.099 34.7882Z" fill="white"/>
<path d="M60.8609 1.46948C64.6911 1.46948 66.9416 3.68403 66.9416 7.48329C66.9416 11.3638 64.7128 13.5784 60.8609 13.5784H56.1868V1.46948H60.8609ZM58.1992 11.8717H60.6229C63.3278 11.8717 64.8859 10.287 64.8859 7.5036C64.8859 4.76082 63.3062 3.1761 60.6229 3.1761H58.1992V11.8717Z" fill="white"/>
<path d="M69.1924 9.00712C69.1924 6.06115 70.9452 4.25293 73.7799 4.25293C76.6147 4.25293 78.3674 6.04083 78.3674 9.00712C78.3674 11.9734 76.6147 13.7613 73.7799 13.7613C70.9452 13.7613 69.1924 11.9734 69.1924 9.00712ZM76.3983 9.00712C76.3983 7.01605 75.4461 5.85798 73.7799 5.85798C72.1137 5.85798 71.1616 7.01605 71.1616 9.00712C71.1616 10.9982 72.092 12.1563 73.7799 12.1563C75.4678 12.1563 76.3983 10.9982 76.3983 9.00712Z" fill="white"/>
<path d="M90.5934 13.5981H88.6026L86.5902 6.85295H86.4387L84.4263 13.5981H82.4572L79.7739 4.45557H81.7214L83.4742 11.4446H83.6257L85.6381 4.45557H87.4774L89.4898 11.4446H89.6413L91.3724 4.45557H93.2983L90.5934 13.5981Z" fill="white"/>
<path d="M95.5276 4.43548H97.3886V5.89831H97.5401C98.0161 4.88246 98.9899 4.27295 100.44 4.27295C102.604 4.27295 103.816 5.49197 103.816 7.66588V13.5984H101.89V8.13317C101.89 6.67035 101.219 5.93894 99.7906 5.93894C98.3624 5.93894 97.4535 6.83289 97.4535 8.25507V13.5984H95.5276V4.43548Z" fill="white"/>
<path d="M106.866 0.880127H108.792V13.5985H106.866V0.880127Z" fill="white"/>
<path d="M111.476 9.00712C111.476 6.06115 113.229 4.25293 116.063 4.25293C118.898 4.25293 120.651 6.04083 120.651 9.00712C120.651 11.9734 118.898 13.7613 116.063 13.7613C113.207 13.7613 111.476 11.9734 111.476 9.00712ZM118.682 9.00712C118.682 7.01605 117.73 5.85798 116.063 5.85798C114.397 5.85798 113.445 7.01605 113.445 9.00712C113.445 10.9982 114.376 12.1563 116.063 12.1563C117.73 12.1563 118.682 10.9982 118.682 9.00712Z" fill="white"/>
<path d="M122.684 10.9979C122.684 9.35221 123.983 8.39731 126.298 8.2754L128.938 8.13318V7.34082C128.938 6.3656 128.267 5.83736 126.947 5.83736C125.865 5.83736 125.13 6.20307 124.913 6.85321H123.052C123.247 5.2888 124.827 4.27295 127.034 4.27295C129.479 4.27295 130.864 5.4107 130.864 7.34082V13.5985H129.003V12.3185H128.851C128.267 13.2328 127.207 13.761 125.93 13.761C124.048 13.7407 122.684 12.6842 122.684 10.9979ZM128.96 10.2258V9.45379L126.579 9.59601C125.238 9.67728 124.632 10.1039 124.632 10.9166C124.632 11.7496 125.389 12.2169 126.428 12.2169C127.878 12.2169 128.96 11.3636 128.96 10.2258Z" fill="white"/>
<path d="M133.395 9.00689C133.395 6.12189 134.975 4.29337 137.442 4.29337C138.783 4.29337 139.908 4.88256 140.428 5.89841H140.579V0.880127H142.505V13.5985H140.644V12.156H140.493C139.908 13.1515 138.783 13.7611 137.442 13.7611C134.953 13.7407 133.395 11.9122 133.395 9.00689ZM135.386 9.00689C135.386 10.9573 136.36 12.1154 137.983 12.1154C139.605 12.1154 140.601 10.937 140.601 9.00689C140.601 7.0971 139.584 5.89841 137.983 5.89841C136.36 5.91872 135.386 7.0971 135.386 9.00689Z" fill="white"/>
<path d="M150.447 9.00712C150.447 6.06115 152.199 4.25293 155.034 4.25293C157.869 4.25293 159.622 6.04083 159.622 9.00712C159.622 11.9734 157.869 13.7613 155.034 13.7613C152.199 13.7613 150.447 11.9734 150.447 9.00712ZM157.652 9.00712C157.652 7.01605 156.7 5.85798 155.034 5.85798C153.368 5.85798 152.416 7.01605 152.416 9.00712C152.416 10.9982 153.346 12.1563 155.034 12.1563C156.7 12.1563 157.652 10.9982 157.652 9.00712Z" fill="white"/>
<path d="M162.219 4.43548H164.08V5.89831H164.231C164.707 4.88246 165.681 4.27295 167.131 4.27295C169.295 4.27295 170.506 5.49197 170.506 7.66588V13.5984H168.581V8.13317C168.581 6.67035 167.91 5.93894 166.481 5.93894C165.053 5.93894 164.144 6.83289 164.144 8.25507V13.5984H162.219V4.43548Z" fill="white"/>
<path d="M181.37 2.15991V4.47602H183.49V5.99978H181.37V10.7133C181.37 11.6681 181.781 12.0948 182.755 12.0948C183.058 12.0948 183.209 12.0745 183.49 12.0542V13.5576C183.187 13.5982 182.819 13.6592 182.452 13.6592C180.309 13.6592 179.465 12.9481 179.465 11.1805V6.02009H177.929V4.49634H179.465V2.15991H181.37Z" fill="white"/>
<path d="M186.087 0.880127H187.991V5.91871H188.143C188.619 4.90287 189.636 4.27304 191.107 4.27304C193.185 4.27304 194.461 5.51237 194.461 7.68628V13.5985H192.535V8.13325C192.535 6.67043 191.821 5.93903 190.458 5.93903C188.878 5.93903 188.013 6.8736 188.013 8.25515V13.5985H186.087V0.880127Z" fill="white"/>
<path d="M205.692 11.1198C205.259 12.7655 203.701 13.761 201.472 13.761C198.681 13.761 196.971 11.9731 196.971 9.04745C196.971 6.1218 198.724 4.27295 201.472 4.27295C204.177 4.27295 205.821 6.02021 205.821 8.88491V9.51474H198.94V9.61633C199.005 11.2214 200.001 12.2372 201.537 12.2372C202.705 12.2372 203.506 11.8512 203.852 11.1198H205.692ZM198.94 8.17382H203.852C203.809 6.73131 202.879 5.79673 201.45 5.79673C200.022 5.79673 199.048 6.75163 198.94 8.17382Z" fill="white"/>
</svg>
