<svg width="252" height="56" viewBox="0 0 252 56" fill="none" xmlns="http://www.w3.org/2000/svg">
<path d="M81.6125 7.53746C81.6125 9.24407 81.0716 10.6053 79.9896 11.6008C78.7778 12.7995 77.1765 13.409 75.229 13.409C73.3464 13.409 71.7667 12.7995 70.4467 11.5805C69.1267 10.3615 68.4775 8.83774 68.4775 7.04985C68.4775 5.24165 69.1267 3.7382 70.4467 2.51919C71.7667 1.30018 73.3464 0.690674 75.229 0.690674C76.1595 0.690674 77.0467 0.853209 77.8906 1.1986C78.7345 1.54398 79.4053 1.99095 79.9247 2.55983L78.7778 3.63662C77.9122 2.68173 76.7437 2.19412 75.229 2.19412C73.8657 2.19412 72.6756 2.64109 71.6802 3.55535C70.6847 4.44929 70.187 5.62767 70.187 7.07017C70.187 8.51267 70.6847 9.69104 71.6802 10.585C72.6756 11.4789 73.8657 11.9462 75.229 11.9462C76.6788 11.9462 77.8906 11.4992 78.8644 10.585C79.4919 9.9958 79.8598 9.16281 79.9463 8.10633H75.229V6.6232H81.526C81.5693 6.94827 81.6125 7.25302 81.6125 7.53746Z" fill="white" stroke="white" stroke-width="0.406337" stroke-miterlimit="10"/>
<path d="M91.5883 2.45828H85.6807V6.31848H91.0041V7.78129H85.6807V11.6415H91.5883V13.1449H84.0144V0.954834H91.5883V2.45828Z" fill="white" stroke="white" stroke-width="0.406337" stroke-miterlimit="10"/>
<path d="M98.6215 13.1449H96.9552V2.45828H93.3198V0.954834H102.235V2.45828H98.5998V13.1449H98.6215Z" fill="white" stroke="white" stroke-width="0.406337" stroke-miterlimit="10"/>
<path d="M108.705 13.1449V0.954834H110.371V13.1449H108.705Z" fill="white" stroke="white" stroke-width="0.406337" stroke-miterlimit="10"/>
<path d="M117.773 13.1449H116.106V2.45828H112.471V0.954834H121.386V2.45828H117.751V13.1449H117.773Z" fill="white" stroke="white" stroke-width="0.406337" stroke-miterlimit="10"/>
<path d="M138.286 11.5597C137.009 12.799 135.429 13.4085 133.525 13.4085C131.621 13.4085 130.041 12.799 128.765 11.5597C127.488 10.3204 126.86 8.81693 126.86 7.04936C126.86 5.2818 127.488 3.75803 128.765 2.53902C130.041 1.29969 131.621 0.690186 133.525 0.690186C135.408 0.690186 136.987 1.29969 138.286 2.53902C139.562 3.77835 140.212 5.2818 140.212 7.04936C140.19 8.83725 139.562 10.3407 138.286 11.5597ZM129.998 10.5439C130.95 11.4581 132.14 11.9051 133.525 11.9051C134.91 11.9051 136.1 11.4581 137.052 10.5439C138.004 9.62961 138.502 8.47154 138.502 7.04936C138.502 5.62718 138.026 4.46912 137.052 3.55486C136.1 2.6406 134.91 2.17332 133.525 2.17332C132.14 2.17332 130.95 2.62029 129.998 3.53455C129.046 4.46912 128.548 5.62718 128.548 7.04936C128.548 8.47154 129.046 9.62961 129.998 10.5439Z" fill="white" stroke="white" stroke-width="0.406337" stroke-miterlimit="10"/>
<path d="M142.549 13.1449V0.954834H144.583L150.902 10.4428H150.967L150.902 8.08604V0.954834H152.568V13.1449H150.837L144.237 3.21H144.172L144.237 5.56676V13.1449H142.549Z" fill="white" stroke="white" stroke-width="0.406337" stroke-miterlimit="10"/>
<path d="M126.45 30.9212C121.365 30.9212 117.21 34.558 117.21 39.5559C117.21 44.5335 121.365 48.1906 126.45 48.1906C131.536 48.1906 135.69 44.5335 135.69 39.5559C135.69 34.558 131.536 30.9212 126.45 30.9212ZM126.45 44.7977C123.659 44.7977 121.257 42.6441 121.257 39.5559C121.257 36.4474 123.659 34.3142 126.45 34.3142C129.242 34.3142 131.644 36.4474 131.644 39.5559C131.644 42.6441 129.22 44.7977 126.45 44.7977ZM106.283 30.9212C101.197 30.9212 97.0427 34.558 97.0427 39.5559C97.0427 44.5335 101.197 48.1906 106.283 48.1906C111.368 48.1906 115.523 44.5335 115.523 39.5559C115.523 34.558 111.368 30.9212 106.283 30.9212ZM106.283 44.7977C103.491 44.7977 101.089 42.6441 101.089 39.5559C101.089 36.4474 103.491 34.3142 106.283 34.3142C109.074 34.3142 111.476 36.4474 111.476 39.5559C111.476 42.6441 109.074 44.7977 106.283 44.7977ZM82.3064 33.5827V37.2398H91.6545C91.3732 39.2918 90.6375 40.8156 89.5339 41.8517C88.1706 43.1317 86.0499 44.5335 82.328 44.5335C76.572 44.5335 72.071 40.1857 72.071 34.7814C72.071 29.3772 76.572 25.0294 82.328 25.0294C85.4224 25.0294 87.6945 26.1671 89.3607 27.6502L92.1089 25.07C89.7719 22.9773 86.6775 21.3723 82.3064 21.3723C74.4297 21.3723 67.8081 27.3861 67.8081 34.8018C67.8081 42.1971 74.4297 48.2312 82.3064 48.2312C86.5693 48.2312 89.7719 46.9309 92.282 44.4726C94.8571 42.0549 95.6578 38.6417 95.6578 35.8989C95.6578 35.0456 95.5928 34.2532 95.4414 33.6031H82.3064V33.5827ZM180.354 36.4271C179.596 34.497 177.259 30.9212 172.477 30.9212C167.738 30.9212 163.8 34.4157 163.8 39.5559C163.8 44.3913 167.695 48.1906 172.931 48.1906C177.151 48.1906 179.596 45.7729 180.592 44.371L177.454 42.4003C176.415 43.8428 174.987 44.7977 172.931 44.7977C170.876 44.7977 169.404 43.9037 168.474 42.1768L180.786 37.4023L180.354 36.4271ZM167.803 39.3121C167.695 35.9801 170.551 34.2735 172.607 34.2735C174.208 34.2735 175.571 35.0252 176.026 36.102L167.803 39.3121ZM157.806 47.6827H161.852V22.2866H157.806V47.6827ZM151.184 32.8513H151.032C150.124 31.8355 148.392 30.9212 146.185 30.9212C141.576 30.9212 137.356 34.7205 137.356 39.5965C137.356 44.432 141.576 48.2109 146.185 48.2109C148.371 48.2109 150.124 47.2966 151.032 46.2402H151.162V47.4795C151.162 50.7911 149.28 52.5587 146.25 52.5587C143.783 52.5587 142.247 50.8927 141.619 49.4909L138.092 50.8724C139.109 53.1682 141.793 55.9719 146.25 55.9719C150.989 55.9719 154.992 53.3511 154.992 46.9716V31.4495H151.162V32.8513H151.184ZM146.532 44.7977C143.74 44.7977 141.403 42.6034 141.403 39.5965C141.403 36.549 143.74 34.3345 146.532 34.3345C149.28 34.3345 151.444 36.5693 151.444 39.5965C151.465 42.6034 149.301 44.7977 146.532 44.7977ZM199.31 22.2866H189.637V47.6827H193.683V38.0525H199.331C203.81 38.0525 208.203 35.0049 208.203 30.1695C208.203 25.3341 203.767 22.2866 199.31 22.2866ZM199.396 34.5173H193.662V25.8014H199.396C202.426 25.8014 204.135 28.1581 204.135 30.1492C204.135 32.1403 202.426 34.5173 199.396 34.5173ZM224.368 30.8806C221.446 30.8806 218.417 32.0996 217.162 34.7611L220.754 36.163C221.511 34.7611 222.94 34.2938 224.433 34.2938C226.532 34.2938 228.652 35.4722 228.674 37.5649V37.829C227.938 37.443 226.38 36.8538 224.454 36.8538C220.581 36.8538 216.664 38.8448 216.664 42.5628C216.664 45.9557 219.823 48.1499 223.372 48.1499C226.077 48.1499 227.592 47.0122 228.522 45.6713H228.652V47.642H232.547V37.9102C232.569 33.3999 228.977 30.8806 224.368 30.8806ZM223.87 44.7977C222.55 44.7977 220.711 44.1678 220.711 42.6441C220.711 40.6937 223.004 39.9419 224.995 39.9419C226.77 39.9419 227.614 40.3076 228.674 40.7952C228.371 43.1317 226.207 44.7977 223.87 44.7977ZM246.764 31.4292L242.133 42.4409H242.004L237.2 31.4292H232.85L240.056 46.8293L235.945 55.3827H240.164L251.265 31.4292H246.764ZM210.41 47.6827H214.457V22.2866H210.41V47.6827Z" fill="white"/>
<path d="M1.59013 2.05091C0.962595 2.68073 0.594727 3.65594 0.594727 4.89527V49.8362C0.594727 51.0959 0.962595 52.0711 1.59013 52.6806L1.74161 52.8228L28.5527 27.6705V27.3657V27.061L1.74161 1.90869L1.59013 2.05091Z" fill="url(#paint0_linear)"/>
<path d="M37.4923 36.0612L28.5552 27.6703V27.3656V27.0608L37.4923 18.6699L37.687 18.7715L48.2687 24.4196C51.2982 26.0247 51.2982 28.6659 48.2687 30.2912L37.687 35.9393L37.4923 36.0612Z" fill="url(#paint1_linear)"/>
<path d="M37.6859 35.96L28.5542 27.366L1.5918 52.6808C2.5872 53.6763 4.23178 53.7982 6.09274 52.8027L37.6859 35.96Z" fill="url(#paint2_linear)"/>
<path d="M37.686 18.7922L6.07125 1.92921C4.21029 0.933683 2.56571 1.05558 1.57031 2.05111L28.5543 27.3659L37.686 18.7922Z" fill="url(#paint3_linear)"/>
<path opacity="0.2" d="M37.4909 35.7568L6.07086 52.5182C4.31809 53.4528 2.73843 53.3918 1.74303 52.5385L1.59155 52.6807L1.74303 52.823C2.76007 53.6763 4.31809 53.7372 6.07086 52.8026L37.6857 35.9397L37.4909 35.7568Z" fill="black"/>
<path opacity="0.12" d="M1.59002 52.3961C0.9624 51.7663 0.594482 50.7911 0.594482 49.5518V49.8565C0.594482 51.1161 0.9624 52.0913 1.59002 52.7008L1.74152 52.5586L1.59002 52.3961Z" fill="black"/>
<path opacity="0.12" d="M48.2682 30.0071L37.4702 35.7568L37.665 35.9396L48.2466 30.2916C49.7613 29.4789 50.5187 28.4224 50.5187 27.366C50.4105 28.3209 49.6531 29.2757 48.2682 30.0071Z" fill="black"/>
<path opacity="0.25" d="M6.07134 2.21363L48.268 24.7247C49.6313 25.4561 50.4103 26.3907 50.5402 27.3659C50.5402 26.3094 49.7828 25.2326 48.268 24.4402L6.07134 1.9292C3.04184 0.324165 0.574951 1.66508 0.574951 4.91577V5.22052C0.574951 1.94951 3.06347 0.608601 6.07134 2.21363Z" fill="white"/>
<defs>
<linearGradient id="paint0_linear" x1="26.1715" y1="4.42758" x2="-7.85742" y2="40.6714" gradientUnits="userSpaceOnUse">
<stop stop-color="#00A0FF"/>
<stop offset="0.00657445" stop-color="#00A1FF"/>
<stop offset="0.2601" stop-color="#00BEFF"/>
<stop offset="0.5122" stop-color="#00D2FF"/>
<stop offset="0.7604" stop-color="#00DFFF"/>
<stop offset="1" stop-color="#00E3FF"/>
</linearGradient>
<linearGradient id="paint1_linear" x1="52.2164" y1="27.3686" x2="-0.144356" y2="27.3686" gradientUnits="userSpaceOnUse">
<stop stop-color="#FFE000"/>
<stop offset="0.4087" stop-color="#FFBD00"/>
<stop offset="0.7754" stop-color="#FFA500"/>
<stop offset="1" stop-color="#FF9C00"/>
</linearGradient>
<linearGradient id="paint2_linear" x1="32.7238" y1="32.0311" x2="-13.4221" y2="81.1804" gradientUnits="userSpaceOnUse">
<stop stop-color="#FF3A44"/>
<stop offset="1" stop-color="#C31162"/>
</linearGradient>
<linearGradient id="paint3_linear" x1="-5.20879" y1="-12.9096" x2="15.3974" y2="9.03752" gradientUnits="userSpaceOnUse">
<stop stop-color="#32A071"/>
<stop offset="0.0685" stop-color="#2DA771"/>
<stop offset="0.4762" stop-color="#15CF74"/>
<stop offset="0.8009" stop-color="#06E775"/>
<stop offset="1" stop-color="#00F076"/>
</linearGradient>
</defs>
</svg>
